<svg width="237" height="48" viewBox="0 0 237 48" fill="none" xmlns="http://www.w3.org/2000/svg">
<path d="M4 24H44" stroke="#0A0A0A" stroke-width="3" stroke-linecap="square" stroke-linejoin="round"/>
<path d="M4 12H44" stroke="#0A0A0A" stroke-width="3" stroke-linecap="square" stroke-linejoin="round"/>
<path d="M4 36H44" stroke="#0A0A0A" stroke-width="3" stroke-linecap="square" stroke-linejoin="round"/>
<path d="M65.0738 17.816H67.0578L70.8018 26.008L74.5458 17.816H76.5298V29H74.6098V21.736L71.2818 29H70.3218L66.9938 21.736V29H65.0738V17.816ZM78.7688 17.816H86.3368V19.496H80.8008V22.568H84.9128V24.248H80.8008V27.32H86.3368V29H78.7688V17.816ZM88.1044 17.816H90.0244L95.2564 25.608V17.816H97.2884V29H95.3684L90.1364 21.192V29H88.1044V17.816ZM104.238 29.24C102.659 29.24 101.464 28.8293 100.654 28.008C99.8537 27.176 99.4537 26.056 99.4537 24.648V17.816H101.486V24.68C101.486 25.5653 101.731 26.2427 102.222 26.712C102.723 27.1707 103.395 27.4 104.238 27.4C105.07 27.4 105.731 27.1707 106.222 26.712C106.723 26.2427 106.974 25.5653 106.974 24.68V17.816H109.006V24.648C109.006 26.056 108.606 27.176 107.806 28.008C107.006 28.8293 105.816 29.24 104.238 29.24Z" fill="#0A0A0A"/>
</svg>
